<svg width="61" height="60" viewBox="0 0 61 60" fill="none" xmlns="http://www.w3.org/2000/svg">
<path d="M30.5 5.40234C38.6492 5.40234 39.6143 5.4375 42.8191 5.57812C45.7977 5.70703 47.4061 6.19922 48.4783 6.60937C49.8961 7.14844 50.9207 7.80469 51.9811 8.84766C53.0533 9.90234 53.7086 10.8984 54.2566 12.293C54.6736 13.3477 55.174 14.9414 55.3051 17.8594C55.4481 21.0234 55.4838 21.9727 55.4838 29.9766C55.4838 37.9922 55.4481 38.9414 55.3051 42.0937C55.174 45.0234 54.6736 46.6055 54.2566 47.6602C53.7086 49.0547 53.0414 50.0625 51.9811 51.1055C50.9088 52.1602 49.8961 52.8047 48.4783 53.3437C47.4061 53.7539 45.7857 54.2461 42.8191 54.375C39.6023 54.5156 38.6373 54.5508 30.5 54.5508C22.3508 54.5508 21.3857 54.5156 18.1809 54.375C15.2023 54.2461 13.5939 53.7539 12.5217 53.3437C11.1039 52.8047 10.0793 52.1484 9.01895 51.1055C7.94668 50.0508 7.29141 49.0547 6.74336 47.6602C6.32637 46.6055 5.82598 45.0117 5.69492 42.0937C5.55195 38.9297 5.51621 37.9805 5.51621 29.9766C5.51621 21.9609 5.55195 21.0117 5.69492 17.8594C5.82598 14.9297 6.32637 13.3477 6.74336 12.293C7.29141 10.8984 7.95859 9.89062 9.01895 8.84766C10.0912 7.79297 11.1039 7.14844 12.5217 6.60937C13.5939 6.19922 15.2143 5.70703 18.1809 5.57812C21.3857 5.4375 22.3508 5.40234 30.5 5.40234ZM30.5 0C22.2197 0 21.1832 0.0351562 17.9307 0.175781C14.69 0.316406 12.4621 0.832031 10.532 1.57031C8.51856 2.34375 6.81484 3.36328 5.12305 5.03906C3.41934 6.70312 2.38281 8.37891 1.59648 10.3477C0.845898 12.2578 0.32168 14.4375 0.178711 17.625C0.0357422 20.8359 0 21.8555 0 30C0 38.1445 0.0357422 39.1641 0.178711 42.3633C0.32168 45.5508 0.845898 47.7422 1.59648 49.6406C2.38281 51.6211 3.41934 53.2969 5.12305 54.9609C6.81484 56.625 8.51856 57.6562 10.5201 58.418C12.4621 59.1562 14.6781 59.6719 17.9188 59.8125C21.1713 59.9531 22.2078 59.9883 30.4881 59.9883C38.7684 59.9883 39.8049 59.9531 43.0574 59.8125C46.2981 59.6719 48.526 59.1562 50.4561 58.418C52.4576 57.6562 54.1613 56.625 55.8531 54.9609C57.5449 53.2969 58.5934 51.6211 59.3678 49.6523C60.1184 47.7422 60.6426 45.5625 60.7856 42.375C60.9285 39.1758 60.9643 38.1562 60.9643 30.0117C60.9643 21.8672 60.9285 20.8477 60.7856 17.6484C60.6426 14.4609 60.1184 12.2695 59.3678 10.3711C58.6172 8.37891 57.5807 6.70312 55.877 5.03906C54.1852 3.375 52.4815 2.34375 50.4799 1.58203C48.5379 0.84375 46.3219 0.328125 43.0813 0.1875C39.8168 0.0351563 38.7803 0 30.5 0Z" fill="white"/>
<path d="M30.5 14.5898C21.8504 14.5898 14.833 21.4922 14.833 30C14.833 38.5078 21.8504 45.4102 30.5 45.4102C39.1496 45.4102 46.167 38.5078 46.167 30C46.167 21.4922 39.1496 14.5898 30.5 14.5898ZM30.5 39.9961C24.8885 39.9961 20.3373 35.5195 20.3373 30C20.3373 24.4805 24.8885 20.0039 30.5 20.0039C36.1115 20.0039 40.6627 24.4805 40.6627 30C40.6627 35.5195 36.1115 39.9961 30.5 39.9961Z" fill="white"/>
<path d="M50.4441 13.9804C50.4441 15.9725 48.8 17.578 46.7865 17.578C44.7611 17.578 43.1289 15.9608 43.1289 13.9804C43.1289 11.9882 44.773 10.3827 46.7865 10.3827C48.8 10.3827 50.4441 11.9999 50.4441 13.9804Z" fill="white"/>
</svg>
