<svg width="61" height="60" viewBox="0 0 61 60" fill="none" xmlns="http://www.w3.org/2000/svg">
<path d="M56.4846 0H4.50352C2.01348 0 0 1.93359 0 4.32422V55.6641C0 58.0547 2.01348 60 4.50352 60H56.4846C58.9746 60 61 58.0547 61 55.6758V4.32422C61 1.93359 58.9746 0 56.4846 0ZM18.0975 51.1289H9.04277V22.4883H18.0975V51.1289ZM13.5701 18.5859C10.6631 18.5859 8.31602 16.2773 8.31602 13.4297C8.31602 10.582 10.6631 8.27344 13.5701 8.27344C16.4652 8.27344 18.8123 10.582 18.8123 13.4297C18.8123 16.2656 16.4652 18.5859 13.5701 18.5859ZM51.9811 51.1289H42.9383V37.207C42.9383 33.8906 42.8787 29.6133 38.2322 29.6133C33.5262 29.6133 32.8113 33.2344 32.8113 36.9727V51.1289H23.7805V22.4883H32.4539V26.4023H32.573C33.7764 24.1523 36.7311 21.7734 41.1273 21.7734C50.2893 21.7734 51.9811 27.7031 51.9811 35.4141V51.1289V51.1289Z" fill="white"/>
</svg>
