<svg width="125" height="125" viewBox="0 0 125 125" fill="none" xmlns="http://www.w3.org/2000/svg">
<path d="M62.5001 114.583C33.7353 114.583 10.4167 91.2648 10.4167 62.5C10.4167 33.7351 33.7353 10.4166 62.5001 10.4166C91.2649 10.4166 114.583 33.7351 114.583 62.5C114.552 91.2517 91.2518 114.552 62.5001 114.583ZM62.4168 104.167H62.5001C85.5038 104.144 104.137 85.4829 104.125 62.4791C104.114 39.4754 85.4621 20.8333 62.4584 20.8333C39.4547 20.8333 20.8033 39.4754 20.7917 62.4791C20.7803 85.4829 39.413 104.144 62.4168 104.167ZM44.3438 77.4166L36.9792 70.052L62.7605 44.2708L88.5418 70.052L81.1772 77.4114L62.7605 59L44.349 77.4166H44.3438Z" fill="white"/>
</svg>
