<svg width="200" height="1092" viewBox="0 0 200 1092" fill="none" xmlns="http://www.w3.org/2000/svg">
<path d="M102.475 1.52513C101.108 0.158291 98.8919 0.158291 97.5251 1.52513L75.2512 23.799C73.8844 25.1658 73.8844 27.3819 75.2512 28.7487C76.6181 30.1156 78.8341 30.1156 80.201 28.7487L100 8.94975L119.799 28.7487C121.166 30.1156 123.382 30.1156 124.749 28.7487C126.116 27.3819 126.116 25.1658 124.749 23.799L102.475 1.52513ZM103.5 1092L103.5 4L96.5 4L96.5 1092L103.5 1092Z" fill="white"/>
<circle cx="100" cy="964" r="23.5" stroke="white" stroke-width="5"/>
<circle cx="100" cy="812" r="23.5" stroke="white" stroke-width="5"/>
<circle cx="100" cy="660" r="23.5" stroke="white" stroke-width="5"/>
<circle cx="100" cy="508" r="23.5" stroke="white" stroke-width="5"/>
<circle cx="100" cy="356" r="23.5" stroke="white" stroke-width="5"/>
<circle cx="100" cy="204" r="23.5" stroke="white" stroke-width="5"/>
<path d="M1.23223 962.232C0.255922 963.209 0.255922 964.791 1.23223 965.768L17.1421 981.678C18.1184 982.654 19.7014 982.654 20.6777 981.678C21.654 980.701 21.654 979.118 20.6777 978.142L6.53553 964L20.6777 949.858C21.654 948.882 21.654 947.299 20.6777 946.322C19.7014 945.346 18.1184 945.346 17.1421 946.322L1.23223 962.232ZM100 961.5L3 961.5L3 966.5L100 966.5L100 961.5Z" fill="white"/>
<path d="M198.768 813.768C199.744 812.791 199.744 811.209 198.768 810.232L182.858 794.322C181.882 793.346 180.299 793.346 179.322 794.322C178.346 795.299 178.346 796.882 179.322 797.858L193.464 812L179.322 826.142C178.346 827.118 178.346 828.701 179.322 829.678C180.299 830.654 181.882 830.654 182.858 829.678L198.768 813.768ZM100 814.5H197V809.5H100V814.5Z" fill="white"/>
<path d="M198.768 509.768C199.744 508.791 199.744 507.209 198.768 506.232L182.858 490.322C181.882 489.346 180.299 489.346 179.322 490.322C178.346 491.299 178.346 492.882 179.322 493.858L193.464 508L179.322 522.142C178.346 523.118 178.346 524.701 179.322 525.678C180.299 526.654 181.882 526.654 182.858 525.678L198.768 509.768ZM100 510.5H197V505.5H100V510.5Z" fill="white"/>
<path d="M198.768 205.768C199.744 204.791 199.744 203.209 198.768 202.232L182.858 186.322C181.882 185.346 180.299 185.346 179.322 186.322C178.346 187.299 178.346 188.882 179.322 189.858L193.464 204L179.322 218.142C178.346 219.118 178.346 220.701 179.322 221.678C180.299 222.654 181.882 222.654 182.858 221.678L198.768 205.768ZM100 206.5H197V201.5H100V206.5Z" fill="white"/>
<path d="M1.23223 354.232C0.255922 355.209 0.255922 356.791 1.23223 357.768L17.1421 373.678C18.1184 374.654 19.7014 374.654 20.6777 373.678C21.654 372.701 21.654 371.118 20.6777 370.142L6.53553 356L20.6777 341.858C21.654 340.882 21.654 339.299 20.6777 338.322C19.7014 337.346 18.1184 337.346 17.1421 338.322L1.23223 354.232ZM100 353.5L3 353.5L3 358.5L100 358.5L100 353.5Z" fill="white"/>
<path d="M1.23223 658.232C0.255922 659.209 0.255922 660.791 1.23223 661.768L17.1421 677.678C18.1184 678.654 19.7014 678.654 20.6777 677.678C21.654 676.701 21.654 675.118 20.6777 674.142L6.53553 660L20.6777 645.858C21.654 644.882 21.654 643.299 20.6777 642.322C19.7014 641.346 18.1184 641.346 17.1421 642.322L1.23223 658.232ZM100 657.5L3 657.5L3 662.5L100 662.5L100 657.5Z" fill="white"/>
</svg>
