<svg width="1920" height="340" viewBox="0 0 1920 340" fill="none" xmlns="http://www.w3.org/2000/svg">
<path d="M0 307L192 327L384 294L576 300L768 339L960 300L1152 289L1344 269L1536 289L1728 317L1920 340V0H1728H1536H1344H1152H960H768H576H384H192H0V307Z" fill="#0085FF"/>
<path d="M0 302L192 279L384 267L576 298L768 304L960 289L1152 243L1344 284L1536 265L1728 267L1920 283V0H1728H1536H1344H1152H960H768H576H384H192H0V302Z" fill="#7B7AF8"/>
<path d="M0 217L192 243L384 207L576 244L768 220L960 232L1152 209L1344 268L1536 257L1728 237L1920 208V0H1728H1536H1344H1152H960H768H576H384H192H0V217Z" fill="#B06BE8"/>
<path d="M0 184L192 233L384 213L576 214L768 227L960 208L1152 182L1344 212L1536 215L1728 224L1920 196V0H1728H1536H1344H1152H960H768H576H384H192H0V184Z" fill="#D65CD1"/>
<path d="M0 162L192 155L384 158L576 196L768 160L960 152L1152 183L1344 175L1536 157L1728 171L1920 189V0H1728H1536H1344H1152H960H768H576H384H192H0V162Z" fill="#F14DB5"/>
<path d="M0 122L192 154L384 152L576 139L768 131L960 119L1152 145L1344 123L1536 135L1728 126L1920 125V0H1728H1536H1344H1152H960H768H576H384H192H0V122Z" fill="#FF4496"/>
<path d="M0 95L192 105L384 89L576 119L768 117L960 106L1152 124L1344 115L1536 109L1728 99L1920 102V0H1728H1536H1344H1152H960H768H576H384H192H0V95Z" fill="#FF4776"/>
<path d="M0 86L192 64L384 76L576 89L768 76L960 74L1152 80L1344 83L1536 60L1728 66L1920 64V0H1728H1536H1344H1152H960H768H576H384H192H0V86Z" fill="#FF5456"/>
<path d="M0 52L192 29L384 46L576 39L768 52L960 42L1152 37L1344 48L1536 53L1728 45L1920 34V0H1728H1536H1344H1152H960H768H576H384H192H0V52Z" fill="#FF6636"/>
</svg>
