<svg  viewBox="0 0 1440 215" fill="none" xmlns="http://www.w3.org/2000/svg">
<path d="M0 20L205.5 53L411 35L616.5 31L823.5 21L1029 69L1234.5 0L1440 17V216H1234.5H1029H823.5H616.5H411H205.5H0V20Z" fill="#FC9576"/>
<path d="M0 35L205.5 42L411 39L616.5 58L823.5 66L1029 100L1234.5 76L1440 86V216H1234.5H1029H823.5H616.5H411H205.5H0V35Z" fill="#FE8A67"/>
<path d="M0 122L205.5 86L411 71L616.5 94L823.5 72L1029 76L1234.5 112L1440 81V216H1234.5H1029H823.5H616.5H411H205.5H0V122Z" fill="#FF7E57"/>
<path d="M0 123L205.5 148L411 108L616.5 154L823.5 148L1029 156L1234.5 152L1440 154V216H1234.5H1029H823.5H616.5H411H205.5H0V123Z" fill="#FF7247"/>
<path d="M0 191H205.5L411 184L616.5 168L823.5 172L1029 177L1234.5 155L1440 156V216H1234.5H1029H823.5H616.5H411H205.5H0V191Z" fill="#FF6636"/>
</svg>
