<svg width="1440" height="165" viewBox="0 0 1440 165" fill="none" xmlns="http://www.w3.org/2000/svg">
<path d="M0 139.306L34.2857 142.6C68.5714 145.962 137.143 152.55 205.714 157.972C274.286 163.324 342.857 167.442 411.429 163.324C480 159.207 548.571 146.855 617.143 143.972C685.714 141.159 754.286 147.747 822.857 151.109C891.429 154.403 960 154.403 1028.57 157.628C1097.14 160.785 1165.71 167.236 1234.29 164.148C1302.86 161.06 1371.43 148.433 1405.71 142.188L1440 135.875V0H1405.71C1371.43 0 1302.86 0 1234.29 0C1165.71 0 1097.14 0 1028.57 0C960 0 891.429 0 822.857 0C754.286 0 685.714 0 617.143 0C548.571 0 480 0 411.429 0C342.857 0 274.286 0 205.714 0C137.143 0 68.5714 0 34.2857 0H0V139.306Z" fill="black"/>
</svg>
