<svg width="1440" height="158" viewBox="0 0 1440 158" fill="none" xmlns="http://www.w3.org/2000/svg">
<path d="M-12 39L22.7462 33.3C57.6449 27.7 127.137 16.3 196.782 12.8C266.427 9.29999 335.92 13.7 405.565 19.7C475.209 25.7 544.702 33.3 614.652 30C684.449 26.7 754.551 12.3 824.348 12.5C894.298 12.7 963.791 27.3 1033.44 31.2C1103.08 35 1172.57 28 1242.22 21C1311.86 14 1381.36 7 1416.25 3.5L1451 0V159H1416.25C1381.36 159 1311.86 159 1242.22 159C1172.57 159 1103.08 159 1033.44 159C963.791 159 894.298 159 824.348 159C754.551 159 684.449 159 614.652 159C544.702 159 475.209 159 405.565 159C335.92 159 266.427 159 196.782 159C127.137 159 57.6449 159 22.7462 159H-12V39Z" fill="#FF6636"/>
</svg>
